<?xml version="1.0" standalone="no"?><!DOCTYPE svg PUBLIC "-//W3C//DTD SVG 1.1//EN" "http://www.w3.org/Graphics/SVG/1.1/DTD/svg11.dtd"><svg t="1703517695431" class="icon" viewBox="0 0 1024 1024" version="1.1" xmlns="http://www.w3.org/2000/svg" p-id="11623" xmlns:xlink="http://www.w3.org/1999/xlink" width="200" height="200"><path d="M375.9 539.4a132.2 90 0 1 0 264.4 0 132.2 90 0 1 0-264.4 0z" fill="#97D2FF" p-id="11624"></path><path d="M512 211.8c-298.7 0-479.2 304.9-479.2 304.9S241.3 812.2 512 812.2s479.2-295.6 479.2-295.6S810.7 211.8 512 211.8z m299.7 413.6c-96.9 81.8-199.8 133.2-302.8 133.2S303 710.2 206.1 625.4c-33.3-30.3-66.6-60.6-93.9-93.9-6.1-6.1-9.1-12.1-15.1-18.2 3-6.1 9.1-12.1 12.1-18.2 24.2-33.3 54.5-66.6 87.8-96.9C290.9 313.4 393.8 262 508.9 262s218 51.5 311.9 136.2c33.3 30.3 60.6 63.6 87.8 96.9 3 6.1 9.1 12.1 12.1 18.2-3 6.1-9.1 12.1-15.1 18.2-27.4 30.4-57.6 63.8-93.9 93.9z" fill="#30A6FF" p-id="11625"></path><path d="M512 329.9c-93.3 0-164.9 74.7-164.9 164.9 0 93.3 74.7 164.9 164.9 164.9 93.3 0 164.9-74.7 164.9-164.9S602.2 329.9 512 329.9z m0 286.3c-65.3 0-118.3-52.9-118.3-118.3s53-118.2 118.3-118.2S630.3 432.6 630.3 498c0 62.3-53 118.2-118.3 118.2z" fill="#30A6FF" p-id="11626"></path></svg>