<?xml version="1.0" standalone="no"?><!DOCTYPE svg PUBLIC "-//W3C//DTD SVG 1.1//EN" "http://www.w3.org/Graphics/SVG/1.1/DTD/svg11.dtd"><svg t="1703517678226" class="icon" viewBox="0 0 1024 1024" version="1.1" xmlns="http://www.w3.org/2000/svg" p-id="9589" xmlns:xlink="http://www.w3.org/1999/xlink" width="200" height="200"><path d="M518.741333 732.5696l331.5712 134.826667V153.770667A17.066667 17.066667 0 0 0 833.28 136.533333H204.7488A17.066667 17.066667 0 0 0 187.733333 153.7536v713.608533l331.008-134.792533zM136.533333 153.770667A68.266667 68.266667 0 0 1 204.7488 85.333333h628.5312a68.266667 68.266667 0 0 1 68.232533 68.420267v721.322667c0 37.7856-28.450133 56.832-63.197866 42.717866l-319.556267-129.9456-319.112533 129.9456C164.795733 931.976533 136.533333 912.9472 136.533333 875.076267V153.7536z" fill="#108EE9" p-id="9590"></path><path d="M458.120533 480.8704l-61.781333-60.2112 85.367467-12.407467 38.178133-77.346133 38.161067 77.346133 85.367466 12.407467-61.781333 60.2112 14.592 85.009067-76.3392-40.1408-76.356267 40.1408 14.592-85.009067z m120.610134-121.344l19.285333 13.994667-5.973333-12.066134-13.312-1.928533z m-136.977067 13.994667l19.285333-13.994667-13.329066 1.928533-5.973334 12.0832z m146.397867 245.9648c35.413333 18.602667 68.317867-5.256533 61.5424-44.714667l-13.038934-76.032 55.2448-53.845333c28.637867-27.921067 16.110933-66.577067-23.5008-72.3456l-76.3392-11.093334-34.133333-69.1712c-17.7152-35.874133-58.368-35.8912-76.0832 0l-34.133333 69.1712-76.3392 11.093334c-39.594667 5.751467-52.1728 44.407467-23.517867 72.362666l55.2448 53.828267-13.038933 76.032c-6.7584 39.424 26.112 63.351467 61.5424 44.714667l68.266666-35.8912 68.283734 35.8912z" fill="#108EE9" p-id="9591"></path></svg>